<svg xmlns="http://www.w3.org/2000/svg" xmlns:xlink="http://www.w3.org/1999/xlink" width="1080" zoomAndPan="magnify" viewBox="0 0 810 1012.49997" height="1350" preserveAspectRatio="xMidYMid meet" version="1.0"><defs><clipPath id="bc03ed4949"><path d="M 0.199219 101.484375 L 778 101.484375 L 778 573 L 0.199219 573 Z M 0.199219 101.484375 " clip-rule="nonzero"/></clipPath></defs><g clip-path="url(#bc03ed4949)"><path fill="#ff3600" d="M 632.402344 277.324219 L 700.507812 306.25 C 707.445312 310.4375 713.410156 315.992188 718.023438 322.566406 C 722.636719 329.136719 725.789062 336.574219 727.289062 344.40625 L 777.992188 567.773438 L 531.179688 508.417969 L 599.539062 294.53125 C 600.230469 291.117188 601.691406 287.890625 603.8125 285.09375 C 605.933594 282.292969 608.664062 279.988281 611.808594 278.339844 C 614.949219 276.695312 618.425781 275.753906 621.988281 275.574219 C 625.550781 275.398438 629.105469 275.996094 632.402344 277.324219 Z M 146.207031 282.246094 L 78.035156 311.125 C 71.09375 315.296875 65.121094 320.839844 60.503906 327.398438 C 55.886719 333.957031 52.722656 341.390625 51.222656 349.214844 L 0.464844 572.214844 L 247.519531 512.941406 L 179.15625 299.40625 C 178.457031 295.988281 176.988281 292.761719 174.859375 289.964844 C 172.730469 287.164062 169.992188 284.863281 166.84375 283.222656 C 163.695312 281.582031 160.210938 280.644531 156.648438 280.472656 C 153.082031 280.304688 149.523438 280.910156 146.226562 282.246094 Z M 378.957031 105.097656 C 382.097656 102.753906 385.941406 101.484375 389.894531 101.484375 C 393.847656 101.484375 397.691406 102.753906 400.832031 105.097656 L 574.332031 234.625 C 577.257812 236.808594 579.425781 239.820312 580.546875 243.242188 C 581.667969 246.671875 581.6875 250.351562 580.601562 253.785156 L 513.949219 464.519531 C 512.816406 468.109375 510.53125 471.253906 507.433594 473.484375 C 504.339844 475.714844 500.589844 476.921875 496.742188 476.921875 L 283.117188 476.921875 C 279.265625 476.921875 275.519531 475.714844 272.421875 473.484375 C 269.324219 471.253906 267.042969 468.109375 265.90625 464.519531 L 199.253906 253.785156 C 198.167969 250.351562 198.1875 246.671875 199.3125 243.242188 C 200.429688 239.820312 202.601562 236.808594 205.527344 234.625 Z M 378.957031 105.097656 " fill-opacity="1" fill-rule="evenodd"/></g><path fill="#ffa200" d="M 420.238281 635.910156 C 420.015625 617.949219 418.972656 595.449219 414.238281 594.863281 C 407.933594 594.097656 400.671875 632.769531 387.21875 632.972656 C 378.675781 633.105469 373.15625 617.230469 369.207031 618.316406 C 364.867188 619.484375 366.933594 640.015625 369.207031 656.421875 L 291.054688 512.441406 C 289.871094 510.207031 289.300781 507.714844 289.390625 505.203125 C 289.480469 502.6875 290.230469 500.242188 291.570312 498.09375 C 292.910156 495.945312 294.789062 494.167969 297.035156 492.9375 C 299.28125 491.707031 301.8125 491.058594 304.386719 491.058594 L 476.039062 491.058594 C 478.613281 491.058594 481.144531 491.707031 483.386719 492.9375 C 485.632812 494.167969 487.515625 495.945312 488.855469 498.09375 C 490.191406 500.242188 490.941406 502.6875 491.03125 505.203125 C 491.125 507.714844 490.550781 510.207031 489.367188 512.441406 Z M 420.238281 635.910156 " fill-opacity="1" fill-rule="evenodd"/><path fill="#ff3600" d="M 13.410156 845.144531 L 13.410156 694.167969 L 65.40625 694.167969 C 73.53125 694.167969 80.867188 696.183594 87.410156 700.207031 C 94.027344 704.234375 99.277344 709.664062 103.160156 716.492188 C 107.117188 723.320312 109.09375 730.871094 109.09375 739.140625 C 109.09375 747.550781 107.082031 755.171875 103.054688 762 C 99.097656 768.757812 93.8125 774.152344 87.195312 778.175781 C 80.578125 782.203125 73.316406 784.214844 65.40625 784.214844 L 35.847656 784.214844 L 35.847656 845.144531 Z M 35.847656 761.785156 L 63.140625 761.785156 C 67.453125 761.785156 71.375 760.707031 74.898438 758.550781 C 78.492188 756.394531 81.335938 753.515625 83.421875 749.921875 C 85.578125 746.328125 86.65625 742.265625 86.65625 737.738281 C 86.65625 733.207031 85.578125 729.144531 83.421875 725.550781 C 81.335938 721.882812 78.492188 719.007812 74.898438 716.925781 C 71.375 714.765625 67.453125 713.6875 63.140625 713.6875 L 35.847656 713.6875 Z M 205.421875 737.304688 L 227.863281 737.304688 L 227.863281 845.144531 L 205.316406 845.144531 L 204.453125 829.507812 C 201.289062 835.042969 197.007812 839.5 191.613281 842.878906 C 186.222656 846.257812 179.855469 847.949219 172.519531 847.949219 C 164.609375 847.949219 157.167969 846.472656 150.191406 843.527344 C 143.214844 840.507812 137.066406 836.335938 131.742188 831.019531 C 126.492188 825.699219 122.394531 819.585938 119.445312 812.6875 C 116.496094 805.710938 115.023438 798.234375 115.023438 790.253906 C 115.023438 782.5625 116.460938 775.335938 119.339844 768.578125 C 122.214844 761.75 126.207031 755.78125 131.3125 750.679688 C 136.417969 745.574219 142.316406 741.582031 149.003906 738.707031 C 155.765625 735.757812 162.992188 734.285156 170.6875 734.285156 C 178.527344 734.285156 185.429688 736.082031 191.398438 739.679688 C 197.441406 743.199219 202.4375 747.730469 206.394531 753.265625 Z M 171.980469 826.273438 C 178.3125 826.273438 183.847656 824.726562 188.59375 821.636719 C 193.339844 818.472656 197.007812 814.230469 199.597656 808.910156 C 202.257812 803.589844 203.589844 797.695312 203.589844 791.226562 C 203.589844 784.683594 202.257812 778.75 199.597656 773.433594 C 196.9375 768.113281 193.234375 763.90625 188.488281 760.816406 C 183.8125 757.652344 178.3125 756.070312 171.980469 756.070312 C 165.726562 756.070312 160.007812 757.652344 154.828125 760.816406 C 149.652344 763.976562 145.550781 768.21875 142.53125 773.539062 C 139.511719 778.859375 138 784.753906 138 791.226562 C 138 797.765625 139.546875 803.699219 142.640625 809.019531 C 145.804688 814.265625 149.941406 818.472656 155.046875 821.636719 C 160.222656 824.726562 165.867188 826.273438 171.980469 826.273438 Z M 297.382812 845.144531 L 275.050781 845.144531 L 238.914062 737.304688 L 260.917969 737.304688 L 286.378906 813.007812 L 311.621094 737.304688 L 334.273438 737.304688 L 359.519531 813.007812 L 384.867188 737.304688 L 406.875 737.304688 L 370.84375 845.144531 L 348.296875 845.144531 L 322.839844 768.902344 Z M 503.347656 737.304688 L 525.785156 737.304688 L 525.785156 845.144531 L 503.242188 845.144531 L 502.378906 829.507812 C 499.210938 835.042969 494.933594 839.5 489.539062 842.878906 C 484.144531 846.257812 477.78125 847.949219 470.445312 847.949219 C 462.535156 847.949219 455.089844 846.472656 448.117188 843.527344 C 441.136719 840.507812 434.988281 836.335938 429.667969 831.019531 C 424.417969 825.699219 420.320312 819.585938 417.371094 812.6875 C 414.421875 805.710938 412.949219 798.234375 412.949219 790.253906 C 412.949219 782.5625 414.386719 775.335938 417.261719 768.578125 C 420.140625 761.75 424.128906 755.78125 429.238281 750.679688 C 434.34375 745.574219 440.242188 741.582031 446.929688 738.707031 C 453.6875 735.757812 460.917969 734.285156 468.613281 734.285156 C 476.449219 734.285156 483.355469 736.082031 489.324219 739.679688 C 495.367188 743.199219 500.363281 747.730469 504.320312 753.265625 Z M 469.90625 826.273438 C 476.234375 826.273438 481.773438 824.726562 486.519531 821.636719 C 491.265625 818.472656 494.933594 814.230469 497.523438 808.910156 C 500.183594 803.589844 501.515625 797.695312 501.515625 791.226562 C 501.515625 784.683594 500.183594 778.75 497.523438 773.433594 C 494.859375 768.113281 491.15625 763.90625 486.410156 760.816406 C 481.738281 757.652344 476.234375 756.070312 469.90625 756.070312 C 463.648438 756.070312 457.933594 757.652344 452.753906 760.816406 C 447.574219 763.976562 443.476562 768.21875 440.457031 773.539062 C 437.4375 778.859375 435.925781 784.753906 435.925781 791.226562 C 435.925781 797.765625 437.472656 803.699219 440.5625 809.019531 C 443.726562 814.265625 447.863281 818.472656 452.96875 821.636719 C 458.148438 824.726562 463.792969 826.273438 469.90625 826.273438 Z M 649.738281 694.167969 L 675.953125 694.167969 L 730.859375 845.144531 L 707.128906 845.144531 L 696.664062 816.460938 L 629.027344 816.460938 L 618.667969 845.144531 L 594.828125 845.144531 Z M 637.332031 794.03125 L 688.359375 794.03125 L 662.789062 723.933594 Z M 753.027344 845.144531 L 753.027344 694.167969 L 775.464844 694.167969 L 775.464844 845.144531 Z M 753.027344 845.144531 " fill-opacity="1" fill-rule="nonzero"/></svg>